<?xml version="1.0" standalone="no"?>
<!DOCTYPE svg PUBLIC "-//W3C//DTD SVG 20010904//EN"
 "http://www.w3.org/TR/2001/REC-SVG-20010904/DTD/svg10.dtd">
<svg version="1.0" xmlns="http://www.w3.org/2000/svg"
 width="800.000000pt" height="800.000000pt" viewBox="0 0 800.000000 800.000000"
 preserveAspectRatio="xMidYMid meet">

<g transform="translate(0.000000,800.000000) scale(0.100000,-0.100000)"
fill="#000000" stroke="none">
<path d="M3802 7990 c-946 -48 -1847 -428 -2517 -1061 -441 -415 -747 -854
-974 -1395 -311 -742 -388 -1598 -215 -2382 117 -531 337 -1029 649 -1469 254
-358 606 -706 975 -964 290 -204 710 -412 1055 -522 412 -133 779 -190 1225
-190 528 0 976 85 1465 276 158 61 514 241 646 325 636 404 1135 949 1454
1591 262 526 396 1036 424 1613 66 1368 -573 2668 -1704 3468 -276 195 -641
379 -990 500 -466 161 -994 235 -1493 210z m408 -25 c769 -26 1612 -340 2234
-833 194 -153 428 -377 578 -552 570 -664 913 -1535 946 -2402 32 -825 -166
-1581 -597 -2283 -333 -541 -892 -1074 -1431 -1362 -47 -25 -89 -49 -95 -54
-5 -4 -75 -37 -155 -74 -369 -171 -744 -284 -1130 -339 -343 -49 -783 -50
-1119 0 -767 112 -1473 435 -2046 935 -600 525 -1014 1183 -1229 1954 -185
666 -185 1424 0 2090 236 848 712 1558 1409 2101 337 263 726 471 1165 622
230 79 525 146 780 177 130 16 442 34 505 28 17 -1 100 -5 185 -8z"/>
<path d="M2275 4570 c-163 -35 -300 -139 -378 -288 -47 -90 -67 -174 -67 -292
0 -175 50 -301 164 -416 116 -117 235 -164 413 -164 151 0 267 38 371 120 53
43 137 157 148 203 l6 27 -90 0 -90 0 -25 -43 c-118 -201 -424 -232 -605 -63
-56 52 -93 116 -117 200 -24 82 -17 248 14 326 64 164 207 260 385 260 135 0
243 -54 310 -154 l37 -56 90 0 c54 0 89 4 89 10 0 28 -59 121 -111 176 -105
109 -216 154 -389 160 -63 1 -133 -1 -155 -6z"/>
<path d="M5857 4570 c-150 -38 -245 -142 -255 -280 -7 -109 11 -165 77 -230
61 -61 90 -74 284 -129 130 -38 174 -59 214 -104 81 -93 27 -241 -101 -277
-61 -17 -160 -8 -212 18 -45 23 -90 82 -100 130 l-6 32 -84 0 c-96 0 -95 1
-69 -87 49 -165 235 -260 457 -232 132 16 228 80 279 185 29 58 33 76 32 144
0 96 -24 152 -90 209 -47 42 -105 67 -294 125 -126 39 -172 64 -206 115 -50
74 -15 186 72 230 56 30 157 33 216 8 48 -20 106 -79 114 -116 l7 -31 84 0 84
0 0 29 c0 16 -15 58 -33 92 -36 71 -101 128 -177 155 -53 19 -237 28 -293 14z"/>
<path d="M3090 4505 l0 -65 160 0 160 0 0 -510 0 -510 75 0 75 0 0 510 0 510
155 0 155 0 0 65 0 65 -390 0 -390 0 0 -65z"/>
<path d="M4060 3995 l0 -575 80 0 80 0 0 575 0 575 -80 0 -80 0 0 -575z"/>
<path d="M4480 3995 l0 -575 280 0 280 0 0 65 0 65 -200 0 -200 0 0 510 0 510
-80 0 -80 0 0 -575z"/>
<path d="M5210 3995 l0 -575 75 0 75 0 0 575 0 575 -75 0 -75 0 0 -575z"/>
<path d="M6530 4505 l0 -65 160 0 160 0 0 -510 0 -510 75 0 75 0 0 510 0 510
155 0 155 0 0 65 0 65 -390 0 -390 0 0 -65z"/>
<path d="M903 4008 c-111 -304 -204 -561 -208 -570 -6 -16 1 -18 77 -18 l85 0
44 123 44 122 246 3 247 2 45 -122 44 -123 82 -3 c44 -2 81 1 81 5 0 4 -91
261 -202 570 l-203 563 -91 0 -91 0 -200 -552z m398 48 c49 -136 89 -250 89
-252 0 -2 -89 -4 -199 -4 l-198 0 93 263 c52 144 97 269 100 277 7 18 0 36
115 -284z"/>
</g>
</svg>
