<svg xmlns="http://www.w3.org/2000/svg" xmlns:xlink="http://www.w3.org/1999/xlink" width="91" height="71" viewBox="0 0 91 71">
  <defs>
    <clipPath id="clip-path">
      <rect id="Rectangle_368" data-name="Rectangle 368" width="91" height="71" transform="translate(-0.381 -0.015)" fill="#ff6510"/>
    </clipPath>
  </defs>
  <g id="discord-black-seeklogo.com-2" transform="translate(0.381 0.015)" clip-path="url(#clip-path)">
    <path id="Path_4643" data-name="Path 4643" d="M77.913,6.227A75.9,75.9,0,0,0,59.179.417a.284.284,0,0,0-.3.142A52.869,52.869,0,0,0,56.545,5.35a70.066,70.066,0,0,0-21.041,0A48.488,48.488,0,0,0,33.135.559a.3.3,0,0,0-.3-.142A75.685,75.685,0,0,0,14.1,6.227a.268.268,0,0,0-.123.106C2.045,24.159-1.223,41.547.38,58.719a.316.316,0,0,0,.12.215A76.321,76.321,0,0,0,23.482,70.551a.3.3,0,0,0,.323-.106,54.549,54.549,0,0,0,4.7-7.648.291.291,0,0,0-.16-.405,50.26,50.26,0,0,1-7.179-3.422.3.3,0,0,1-.029-.489c.482-.362.965-.738,1.426-1.118a.285.285,0,0,1,.3-.04,54.428,54.428,0,0,0,46.254,0,.284.284,0,0,1,.3.037c.461.38.943.76,1.429,1.121a.3.3,0,0,1-.025.489,47.164,47.164,0,0,1-7.183,3.418.294.294,0,0,0-.156.409,61.248,61.248,0,0,0,4.7,7.644.292.292,0,0,0,.323.11A76.068,76.068,0,0,0,91.52,58.934a.3.3,0,0,0,.12-.212c1.919-19.853-3.214-37.1-13.608-52.386A.234.234,0,0,0,77.913,6.227ZM30.756,48.263c-4.535,0-8.271-4.163-8.271-9.276s3.664-9.276,8.271-9.276c4.643,0,8.344,4.2,8.271,9.276C39.027,44.1,35.363,48.263,30.756,48.263Zm30.582,0c-4.535,0-8.271-4.163-8.271-9.276s3.664-9.276,8.271-9.276c4.644,0,8.344,4.2,8.271,9.276C69.609,44.1,65.981,48.263,61.337,48.263Z" transform="translate(-0.355 0.089)" fill="#ff6510"/>
  </g>
</svg>
