<svg xmlns="http://www.w3.org/2000/svg" width="79.007" height="77.034" viewBox="0 0 79.007 77.034">
  <path id="Icon_awesome-github" data-name="Icon awesome-github" d="M26.426,62.59c0,.319-.366.573-.828.573-.526.048-.892-.207-.892-.573,0-.319.366-.573.828-.573C26.012,61.969,26.426,62.224,26.426,62.59Zm-4.954-.717c-.112.319.207.685.685.781a.747.747,0,0,0,.988-.319c.1-.319-.207-.685-.685-.828A.818.818,0,0,0,21.472,61.873Zm7.041-.271c-.462.111-.781.414-.733.781.048.319.462.526.94.414.462-.112.781-.414.733-.733C29.4,61.762,28.974,61.555,28.512,61.6ZM38.994.563C16.9.563,0,17.336,0,39.429a39.936,39.936,0,0,0,27,38.1c2.039.366,2.756-.892,2.756-1.927,0-.988-.048-6.435-.048-9.78,0,0-11.15,2.389-13.492-4.747,0,0-1.816-4.635-4.428-5.83,0,0-3.648-2.5.255-2.453a8.408,8.408,0,0,1,6.149,4.11c3.488,6.149,9.334,4.38,11.612,3.329a8.853,8.853,0,0,1,2.549-5.368c-8.9-.988-17.888-2.278-17.888-17.6,0-4.38,1.211-6.579,3.759-9.382a15.05,15.05,0,0,1,.414-10.816c3.329-1.035,10.991,4.3,10.991,4.3a37.63,37.63,0,0,1,20.007,0s7.662-5.352,10.991-4.3a15.043,15.043,0,0,1,.414,10.816c2.549,2.819,4.11,5.018,4.11,9.382,0,15.371-9.382,16.6-18.286,17.6,1.465,1.258,2.708,3.648,2.708,7.391,0,5.368-.048,12.01-.048,13.317,0,1.035.733,2.294,2.756,1.927,15.929-5.288,26.728-20.405,26.728-38.07C79.007,17.336,61.087.563,38.994.563ZM15.483,55.5c-.207.159-.159.526.111.828.255.255.621.366.828.159.207-.159.159-.526-.112-.828C16.056,55.406,15.69,55.295,15.483,55.5Zm-1.72-1.29c-.112.207.048.462.366.621a.474.474,0,0,0,.685-.111c.112-.207-.048-.462-.366-.621C14.129,54,13.874,54.052,13.762,54.211Zm5.161,5.671c-.255.207-.159.685.207.988.366.366.828.414,1.035.159.207-.207.112-.685-.207-.988C19.608,59.675,19.13,59.627,18.923,59.882Zm-1.816-2.342c-.255.159-.255.573,0,.94s.685.526.892.366a.727.727,0,0,0,0-.988C17.776,57.493,17.362,57.334,17.107,57.541Z" transform="translate(0 -0.563)" fill="#ff6510"/>
</svg>
